<svg width="129" height="47" viewBox="0 0 129 47" fill="none" xmlns="http://www.w3.org/2000/svg">
<path d="M2.35606 36V16.2948H7.49655V24.8623H7.42516C7.42516 22.1016 7.99632 19.936 9.13866 18.3653C10.3048 16.7945 11.9707 16.0092 14.1364 16.0092H14.9217V21.5781H13.4224C11.9707 21.5781 10.8403 21.9707 10.0311 22.7561C9.24575 23.5414 8.85307 24.6719 8.85307 26.1474V36H2.35606ZM29.2695 36V30.2169H28.1985V24.0412C28.1985 23.1369 27.9843 22.4705 27.556 22.0421C27.1514 21.59 26.4731 21.3639 25.5212 21.3639C25.069 21.3639 24.4027 21.3758 23.5221 21.3996C22.6416 21.4234 21.7134 21.4591 20.7377 21.5067C19.7619 21.5543 18.8695 21.6019 18.0603 21.6495V16.2234C18.6315 16.1758 19.3098 16.1282 20.0951 16.0806C20.8805 16.033 21.6896 15.9973 22.5226 15.9735C23.3793 15.9497 24.1647 15.9378 24.8786 15.9378C26.9015 15.9378 28.615 16.2353 30.0191 16.8302C31.447 17.4252 32.5299 18.3177 33.2676 19.5076C34.0292 20.6975 34.41 22.2087 34.41 24.0412V36H29.2695ZM23.0223 36.4998C21.642 36.4998 20.4164 36.2499 19.3455 35.7501C18.2745 35.2503 17.4297 34.5364 16.8109 33.6082C16.2159 32.6563 15.9185 31.5259 15.9185 30.2169C15.9185 28.7414 16.3111 27.5515 17.0965 26.6472C17.8818 25.719 18.9647 25.0408 20.345 24.6124C21.7253 24.184 23.3079 23.9698 25.0928 23.9698H28.9125V27.3254H25.0928C24.2123 27.3254 23.534 27.5515 23.058 28.0037C22.5821 28.4321 22.3441 29.0151 22.3441 29.7529C22.3441 30.4668 22.5821 31.0499 23.058 31.5021C23.534 31.9304 24.2123 32.1446 25.0928 32.1446C25.664 32.1446 26.1638 32.0494 26.5921 31.859C27.0443 31.6449 27.4132 31.2879 27.6988 30.7881C27.9843 30.2883 28.1509 29.5982 28.1985 28.7176L29.6978 30.1455C29.5788 31.5021 29.2457 32.6563 28.6983 33.6082C28.1747 34.5364 27.437 35.2503 26.485 35.7501C25.5569 36.2499 24.4027 36.4998 23.0223 36.4998ZM38.7512 43.1396V16.2948H43.8916V24.7909H43.3205C43.3919 22.8632 43.7727 21.2211 44.4628 19.8646C45.1768 18.508 46.1406 17.4847 47.3543 16.7945C48.5681 16.0806 49.9603 15.7236 51.531 15.7236C52.8875 15.7236 54.1131 15.9735 55.2079 16.4733C56.3026 16.9492 57.2427 17.6394 58.028 18.5437C58.8134 19.4243 59.4083 20.4714 59.8129 21.6852C60.2413 22.8989 60.4555 24.2316 60.4555 25.6833V26.5401C60.4555 27.9918 60.2651 29.3364 59.8843 30.5739C59.5035 31.7877 58.9324 32.8586 58.1708 33.7867C57.4092 34.6911 56.4692 35.3931 55.3507 35.8929C54.2559 36.3927 52.9946 36.6426 51.5667 36.6426C50.0436 36.6426 48.699 36.3451 47.5328 35.7501C46.3667 35.1314 45.4386 34.2151 44.7484 33.0014C44.082 31.7639 43.7251 30.2169 43.6775 28.3607L45.2482 30.2883V43.1396H38.7512ZM49.6033 31.2879C50.4601 31.2879 51.2097 31.0737 51.8523 30.6453C52.5186 30.1931 53.0303 29.5744 53.3873 28.789C53.7681 28.0037 53.9584 27.1112 53.9584 26.1117C53.9584 25.0883 53.7681 24.2078 53.3873 23.47C53.0303 22.7085 52.5305 22.1254 51.888 21.7209C51.2454 21.2925 50.4839 21.0783 49.6033 21.0783C48.818 21.0783 48.0802 21.2568 47.39 21.6138C46.7237 21.9707 46.1763 22.4943 45.7479 23.1845C45.3196 23.8746 45.1054 24.7076 45.1054 25.6833V26.897C45.1054 27.8252 45.3315 28.6224 45.7836 29.2888C46.2358 29.9314 46.807 30.4311 47.4971 30.7881C48.1873 31.1213 48.8894 31.2879 49.6033 31.2879ZM64.9537 36V16.2948H71.4507V36H64.9537ZM62.4548 21.0069V16.2948H71.4507V21.0069H62.4548ZM67.631 14.7241C66.4411 14.7241 65.5605 14.4266 64.9894 13.8316C64.442 13.2129 64.1683 12.4275 64.1683 11.4756C64.1683 10.5236 64.442 9.75016 64.9894 9.1552C65.5605 8.53644 66.4292 8.22705 67.5953 8.22705C68.7852 8.22705 69.6539 8.53644 70.2013 9.1552C70.7486 9.75016 71.0223 10.5236 71.0223 11.4756C71.0223 12.4275 70.7486 13.2129 70.2013 13.8316C69.6539 14.4266 68.7971 14.7241 67.631 14.7241ZM84.3304 36.6426C82.95 36.6426 81.6887 36.3927 80.5464 35.8929C79.4279 35.3931 78.4521 34.703 77.6192 33.8224C76.81 32.9181 76.1794 31.859 75.7272 30.6453C75.2988 29.4316 75.0846 28.1108 75.0846 26.6829V25.8261C75.0846 24.3982 75.2869 23.0774 75.6915 21.8636C76.1199 20.6261 76.7267 19.5552 77.5121 18.6508C78.2974 17.7227 79.2494 17.0087 80.3679 16.509C81.4864 15.9854 82.7359 15.7236 84.1162 15.7236C85.7107 15.7236 87.0672 16.0806 88.1857 16.7945C89.3281 17.4847 90.1967 18.4961 90.7917 19.8289C91.4104 21.1616 91.7436 22.7799 91.7912 24.6838L90.2919 23.5771V9.94055H96.7889V36H91.6484V28.0037H92.3624C92.3148 29.7648 91.9578 31.2998 91.2915 32.6087C90.6251 33.8938 89.6969 34.8934 88.507 35.6073C87.3409 36.2975 85.9487 36.6426 84.3304 36.6426ZM86.0796 31.2879C86.8649 31.2879 87.5789 31.1094 88.2214 30.7524C88.8878 30.3954 89.4233 29.8719 89.8278 29.1817C90.2324 28.4915 90.4347 27.6586 90.4347 26.6829V25.4691C90.4347 24.5172 90.2205 23.7199 89.7921 23.0774C89.3876 22.4348 88.8521 21.9469 88.1857 21.6138C87.5432 21.2568 86.8411 21.0783 86.0796 21.0783C85.2228 21.0783 84.4494 21.3044 83.7592 21.7565C83.0928 22.1849 82.5574 22.7918 82.1528 23.5771C81.772 24.3387 81.5816 25.2311 81.5816 26.2545C81.5816 27.2778 81.772 28.1703 82.1528 28.9318C82.5574 29.6696 83.0928 30.2526 83.7592 30.681C84.4494 31.0856 85.2228 31.2879 86.0796 31.2879Z" fill="#712FFF"/>
<path d="M106.016 22.0645L122.565 5.51607M122.565 5.51607H110.153M122.565 5.51607V17.9274" stroke="black" stroke-width="2.20645" stroke-linecap="round" stroke-linejoin="round"/>
</svg>
